<?xml version="1.0" encoding="utf-8"?>
<!-- Generator: Adobe Illustrator 24.0.3, SVG Export Plug-In . SVG Version: 6.00 Build 0)  -->
<svg version="1.1" id="Layer_1" xmlns="http://www.w3.org/2000/svg" xmlns:xlink="http://www.w3.org/1999/xlink" x="0px" y="0px"
	 viewBox="0 0 19.2 18.7" style="enable-background:new 0 0 19.2 18.7;" xml:space="preserve">
<style type="text/css">
	.st0{fill:#364EA2;}
</style>
<title>arrow-right-list</title>
<path class="st0" d="M8.2,1.3l1-1c0.4-0.4,1-0.4,1.4,0c0,0,0,0,0,0l8.3,8.3c0.4,0.4,0.4,1,0,1.4c0,0,0,0,0,0l-8.3,8.3
	c-0.4,0.4-1,0.4-1.4,0c0,0,0,0,0,0l-1-1c-0.4-0.4-0.4-1.1,0-1.5c0,0,0,0,0,0l5.2-4.9H1c-0.6,0-1-0.5-1-1c0,0,0,0,0,0V8.7
	c0-0.6,0.5-1,1-1c0,0,0,0,0,0h12.3L8.2,2.7C7.8,2.3,7.7,1.7,8.2,1.3C8.1,1.3,8.1,1.3,8.2,1.3z"/>
</svg>
