<?xml version="1.0" encoding="utf-8"?>
<!-- Generator: Adobe Illustrator 24.0.3, SVG Export Plug-In . SVG Version: 6.00 Build 0)  -->
<svg version="1.1" id="Layer_1" xmlns="http://www.w3.org/2000/svg" xmlns:xlink="http://www.w3.org/1999/xlink" x="0px" y="0px"
	 viewBox="0 0 200 200" style="enable-background:new 0 0 200 200;" xml:space="preserve">
<style type="text/css">
	.st0{fill:url(#SVGID_1_);}
	.st1{fill:url(#SVGID_2_);}
	.st2{fill:#1397E8;}
	.st3{fill:url(#SVGID_3_);}
	.st4{fill:url(#SVGID_4_);}
	.st5{fill:#181FAA;}
</style>
<linearGradient id="SVGID_1_" gradientUnits="userSpaceOnUse" x1="16.3" y1="1177" x2="185.2029" y2="1177" gradientTransform="matrix(1 0 0 1 0 -1074)">
	<stop  offset="0" style="stop-color:#1C19A1"/>
	<stop  offset="0.999" style="stop-color:#0048E5"/>
</linearGradient>
<path class="st0" d="M179.7,163H21.8c-3.1,0-5.5-2.5-5.5-5.5v-109c0-3.1,2.5-5.5,5.5-5.5h157.9c3.1,0,5.5,2.5,5.5,5.5v108.9
	C185.3,160.5,182.8,163,179.7,163z"/>
<linearGradient id="SVGID_2_" gradientUnits="userSpaceOnUse" x1="62.8" y1="1250.5" x2="138.8" y2="1250.5" gradientTransform="matrix(1 0 0 1 0 -1074)">
	<stop  offset="0" style="stop-color:#1C19A1"/>
	<stop  offset="0.999" style="stop-color:#0048E5"/>
</linearGradient>
<rect x="62.8" y="173" class="st1" width="76" height="7"/>
<polygon class="st2" points="85.1,124.3 57.9,124.3 43.3,117.9 43.3,85.4 57.9,79 85.1,79 "/>
<linearGradient id="SVGID_3_" gradientUnits="userSpaceOnUse" x1="24" y1="-616.05" x2="43.3" y2="-616.05" gradientTransform="matrix(1 0 0 -1 0 -514)">
	<stop  offset="9.999848e-04" style="stop-color:#1C3CA1"/>
	<stop  offset="1" style="stop-color:#1397E8"/>
</linearGradient>
<rect x="24" y="98.3" class="st3" width="19.3" height="7.5"/>
<polygon class="st2" points="116.4,79 143.6,79 158.2,85.4 158.2,117.9 143.6,124.3 116.4,124.3 "/>
<linearGradient id="SVGID_4_" gradientUnits="userSpaceOnUse" x1="158.2" y1="-615.35" x2="177.5" y2="-615.35" gradientTransform="matrix(1 0 0 -1 0 -514)">
	<stop  offset="0" style="stop-color:#1397E8"/>
	<stop  offset="0.2052" style="stop-color:#1393E5"/>
	<stop  offset="0.4167" style="stop-color:#1586DB"/>
	<stop  offset="0.6311" style="stop-color:#1772CB"/>
	<stop  offset="0.8462" style="stop-color:#1A55B5"/>
	<stop  offset="0.999" style="stop-color:#1C3CA1"/>
</linearGradient>
<polygon class="st4" points="177.5,97.6 158.2,97.6 158.2,105.1 177.5,105.1 "/>
<rect x="84.1" y="88.6" class="st2" width="15.5" height="4.9"/>
<rect x="84.1" y="110" class="st2" width="15.5" height="4.9"/>
<rect x="57.9" y="79" class="st5" width="2.4" height="45.3"/>
<rect x="141.3" y="79" class="st5" width="2.4" height="45.3"/>
</svg>
