<?xml version="1.0" encoding="utf-8"?>
<!-- Generator: Adobe Illustrator 24.0.3, SVG Export Plug-In . SVG Version: 6.00 Build 0)  -->
<svg version="1.1" id="Layer_1" xmlns="http://www.w3.org/2000/svg" xmlns:xlink="http://www.w3.org/1999/xlink" x="0px" y="0px"
	 viewBox="0 0 200 200" style="enable-background:new 0 0 200 200;" xml:space="preserve">
<style type="text/css">
	.st0{fill:url(#SVGID_1_);}
	.st1{fill:#1397E8;}
	.st2{fill:url(#SVGID_2_);}
	.st3{fill:url(#SVGID_3_);}
	.st4{fill:url(#SVGID_4_);}
	.st5{fill:url(#SVGID_5_);}
	.st6{fill:url(#SVGID_6_);}
	.st7{fill:url(#SVGID_7_);}
	.st8{fill:none;stroke:#FFFFFF;stroke-width:6.1123;stroke-miterlimit:10;}
	.st9{opacity:0.7;fill:#FFFFFF;}
</style>
<linearGradient id="SVGID_1_" gradientUnits="userSpaceOnUse" x1="24.1" y1="100.5" x2="173.9" y2="100.5" gradientTransform="matrix(1 0 0 -1 0 200)">
	<stop  offset="0" style="stop-color:#1C19A1"/>
	<stop  offset="0.999" style="stop-color:#0048E5"/>
</linearGradient>
<circle class="st0" cx="99" cy="99.5" r="74.9"/>
<circle class="st1" cx="99" cy="24.6" r="17.6"/>
<circle class="st1" cx="34.1" cy="62" r="17.6"/>
<circle class="st1" cx="34.1" cy="137" r="17.6"/>
<circle class="st1" cx="99" cy="174.4" r="17.6"/>
<circle class="st1" cx="163.9" cy="137" r="17.6"/>
<circle class="st1" cx="163.9" cy="62" r="17.6"/>
<g>
	
		<linearGradient id="SVGID_2_" gradientUnits="userSpaceOnUse" x1="27.1675" y1="136.1257" x2="51.6733" y2="136.1257" gradientTransform="matrix(1 0 0 -1 0 200)">
		<stop  offset="1.030742e-03" style="stop-color:#0048E5"/>
		<stop  offset="1" style="stop-color:#1397E8"/>
	</linearGradient>
	<path class="st2" d="M27.2,78.2c8.1,3.5,17.6,0.5,22.2-7.3c4.5-7.8,2.3-17.6-4.7-22.8C36.6,56.4,30.6,66.7,27.2,78.2z"/>
	
		<linearGradient id="SVGID_3_" gradientUnits="userSpaceOnUse" x1="27.1675" y1="64.7243" x2="51.6733" y2="64.7243" gradientTransform="matrix(1 0 0 -1 0 200)">
		<stop  offset="1.030742e-03" style="stop-color:#0048E5"/>
		<stop  offset="1" style="stop-color:#1397E8"/>
	</linearGradient>
	<path class="st3" d="M49.3,128.2c-4.5-7.8-14.1-10.8-22.2-7.3c3.4,11.4,9.5,21.7,17.5,30.2C51.7,145.8,53.8,136,49.3,128.2z"/>
	
		<linearGradient id="SVGID_4_" gradientUnits="userSpaceOnUse" x1="146.3266" y1="136.2069" x2="170.8324" y2="136.2069" gradientTransform="matrix(1 0 0 -1 0 200)">
		<stop  offset="1.030742e-03" style="stop-color:#0048E5"/>
		<stop  offset="1" style="stop-color:#1397E8"/>
	</linearGradient>
	<path class="st4" d="M170.8,78.2c-3.4-11.4-9.5-21.7-17.5-30.2c-7,5.3-9.2,15.1-4.7,22.8C153.2,78.6,162.8,81.6,170.8,78.2z"/>
	
		<linearGradient id="SVGID_5_" gradientUnits="userSpaceOnUse" x1="146.3266" y1="64.8743" x2="170.8324" y2="64.8743" gradientTransform="matrix(1 0 0 -1 0 200)">
		<stop  offset="1.030742e-03" style="stop-color:#0048E5"/>
		<stop  offset="1" style="stop-color:#1397E8"/>
	</linearGradient>
	<path class="st5" d="M170.8,120.8c-8.1-3.5-17.6-0.5-22.2,7.3c-4.5,7.8-2.3,17.6,4.7,22.8C161.4,142.6,167.4,132.3,170.8,120.8z"/>
	
		<linearGradient id="SVGID_6_" gradientUnits="userSpaceOnUse" x1="81.5642" y1="34.3" x2="116.4359" y2="34.3" gradientTransform="matrix(1 0 0 -1 0 200)">
		<stop  offset="1.030742e-03" style="stop-color:#0048E5"/>
		<stop  offset="1" style="stop-color:#1397E8"/>
	</linearGradient>
	<path class="st6" d="M116.4,172.4c-1-8.7-8.4-15.5-17.4-15.5s-16.4,6.8-17.4,15.5c5.6,1.3,11.4,2.1,17.4,2.1
		S110.8,173.7,116.4,172.4z"/>
	
		<linearGradient id="SVGID_7_" gradientUnits="userSpaceOnUse" x1="81.5642" y1="166.7" x2="116.4359" y2="166.7" gradientTransform="matrix(1 0 0 -1 0 200)">
		<stop  offset="1.030742e-03" style="stop-color:#0048E5"/>
		<stop  offset="1" style="stop-color:#1397E8"/>
	</linearGradient>
	<path class="st7" d="M99,42.1c9,0,16.4-6.8,17.4-15.5c-5.6-1.3-11.4-2.1-17.4-2.1s-11.8,0.7-17.4,2.1C82.6,35.4,90,42.1,99,42.1z"
		/>
</g>
<path class="st8" d="M148.7,128.2"/>
<path class="st8" d="M49.3,70.8"/>
<polygon class="st9" points="147.2,130.8 97.7,101.2 47.8,73.5 50.8,68.2 100.3,97.7 150.2,125.5 "/>
<polygon class="st9" points="50.3,130 47.3,124.6 98.2,97.6 147.7,69 150.7,74.4 100.3,101.2 "/>
<polygon class="st9" points="102.1,156.9 95.9,156.9 96.8,99.5 95.9,42.1 102.1,42.1 101.2,99.5 "/>
</svg>
