<?xml version="1.0" encoding="utf-8"?>
<!-- Generator: Adobe Illustrator 24.0.3, SVG Export Plug-In . SVG Version: 6.00 Build 0)  -->
<svg version="1.1" id="Layer_1" xmlns="http://www.w3.org/2000/svg" xmlns:xlink="http://www.w3.org/1999/xlink" x="0px" y="0px"
	 viewBox="0 0 200 200" style="enable-background:new 0 0 200 200;" xml:space="preserve">
<style type="text/css">
	.st0{fill:#1397E8;}
	.st1{fill:url(#SVGID_1_);}
	.st2{fill:url(#SVGID_2_);}
</style>
<path class="st0" d="M130.6,26.4c-1.8,0.1-3.3,1.4-3.6,3.2c-4.9,28.3-15.6,39.6-25.9,50.3s-20.4,21.6-20.4,45.1
	c0,11.7,5.2,21.5,12.9,29.1s17.7,13,28,16.4c2,0.7,4.2-0.4,4.9-2.5c0.4-1.3,0.1-2.7-0.7-3.7c-9.7-11.6-12.1-19.6-11.9-26
	c0.2-5.1,2.3-9.6,4.7-14.3c4.5,2.6,8.8,4,12.6,2.8c5-1.5,8-5.7,10-10.1c2-4.6,3.1-9.7,3.6-14.3c10.7,12.6,14.7,23.2,14.6,32.1
	c-0.2,12.6-7.8,22.9-14.9,29.4c-1.6,1.5-1.6,3.9-0.2,5.5c0.9,0.9,2.1,1.4,3.4,1.2c21.7-3,41.5-21.9,41.5-45.9
	c0-16.5-2.9-31.3-11.4-46.7s-22.4-31.2-44.2-50.7C132.6,26.7,131.6,26.3,130.6,26.4z"/>
<g>
	<linearGradient id="SVGID_1_" gradientUnits="userSpaceOnUse" x1="13" y1="98.5563" x2="108.0509" y2="98.5563">
		<stop  offset="0" style="stop-color:#1C19A1"/>
		<stop  offset="0.999" style="stop-color:#0048E5"/>
	</linearGradient>
	<path class="st1" d="M102.2,97.1l-37.1-68c-1.4-2.6-4.7-3.5-7.2-2.1c-0.9,0.5-1.6,1.2-2.1,2.1l-37.1,68c-3.8,7-5.8,14.8-5.8,22.7
		v3.3c0,26.2,21.3,47.5,47.5,47.5s47.5-21.3,47.5-47.5v-3.3C108,111.9,106.1,104.1,102.2,97.1z"/>
</g>
<linearGradient id="SVGID_2_" gradientUnits="userSpaceOnUse" x1="77.7892" y1="138.3555" x2="113.2604" y2="102.8843">
	<stop  offset="1.030742e-03" style="stop-color:#0048E5"/>
	<stop  offset="1" style="stop-color:#1397E8"/>
</linearGradient>
<path class="st2" d="M108.1,123.2v-3.3c0-7.9-2-15.8-5.8-22.7l-6.3-11.6c-8.2,9.2-15.2,20-15.2,39.5c0,11.7,5.2,21.5,12.9,29.1
	c0.5,0.5,1.1,1,1.6,1.5C103.1,147.1,108.1,135.7,108.1,123.2z"/>
</svg>
