<?xml version="1.0" encoding="utf-8"?>
<!-- Generator: Adobe Illustrator 24.0.3, SVG Export Plug-In . SVG Version: 6.00 Build 0)  -->
<svg version="1.1" id="Layer_1" xmlns="http://www.w3.org/2000/svg" xmlns:xlink="http://www.w3.org/1999/xlink" x="0px" y="0px"
	 viewBox="0 0 233.6 126.4" style="enable-background:new 0 0 233.6 126.4;" xml:space="preserve">
<style type="text/css">
	.st0{fill:none;}
</style>
<g>
	<path class="st0" d="M175.7,64.2c-12.1-6.6-54.2-29.8-60.3-33.1s-16-8.8-16-8.8s-19.3-11.6-32.6,2.2c-9.9,9.9-9.9,18.8-13.2,37.5
		c-3.3,18.8-11.6,59.6,2.8,62.4c9.9,1.7,14.9-8.3,20.4-16c13.8-20.4,27-44.7,34.8-56.3c3.8-6.7,11-16.6,11-16.7l0,0
		c5.4-7.5,9.9-12.7,13.8-15.9c6.1-5.5,22.1-13.2,32.6,0.6s18.8,30.9,19.3,37.5S187.7,70.8,175.7,64.2"/>
</g>
<g>
	<path class="st0" d="M172.6,75.5C154,71.7,135.8,67,135.8,67S91.7,57,75.6,53.1c0,0-48.6-8.8-63.5-1.1C0.6,58.1-1.1,74.7,6.7,79.6
		c6.6,4.4,12.7,3.9,23.2,1.1C36.8,78.8,51,71,51,71c3.5-2.2,8.1-5.1,12-7.9c13.2-9.5,33.4-24.9,47-35.4l0.1-0.1
		c8.7-6.7,14.7-11.4,14.7-11.4s19.9-17.1,43-13.8C179.9,4,182.2,6.2,191,16.2c0,0,11,13.2,17.1,20.4c6.6,7.7,17.1,23.7,18.2,28.1
		c0.6,3.3,1.1,16-22.1,15.5c-7.6-0.2-19.8-2.3-31.8-4.8"/>
</g>
</svg>
