<?xml version="1.0" encoding="utf-8"?>
<!-- Generator: Adobe Illustrator 24.0.3, SVG Export Plug-In . SVG Version: 6.00 Build 0)  -->
<svg version="1.1" id="Layer_1" xmlns="http://www.w3.org/2000/svg" xmlns:xlink="http://www.w3.org/1999/xlink" x="0px" y="0px"
	 viewBox="0 0 335.5 200" style="enable-background:new 0 0 335.5 200;" xml:space="preserve">
<style type="text/css">
	.st0{fill:url(#SVGID_1_);}
	.st1{fill:#1397E8;}
	.st2{fill:url(#SVGID_2_);}
	.st3{fill:url(#SVGID_3_);}
	.st4{fill:url(#SVGID_4_);}
</style>
<linearGradient id="SVGID_1_" gradientUnits="userSpaceOnUse" x1="9.5554" y1="99.4652" x2="197.9076" y2="99.4652">
	<stop  offset="0" style="stop-color:#1C19A1"/>
	<stop  offset="0.999" style="stop-color:#0048E5"/>
</linearGradient>
<path class="st0" d="M129.1,23.4c-3.1,1.5-6,3.7-8.2,6.3L13.7,159.1c-5.7,6.8-5.5,14.7,0.4,17.4c1.4,0.7,3.1,1,4.9,1l41.8,0
	c5.6,0,12.1-3.3,16.3-8.4l27.8-33.5l93-112.2c-1.6-1.4-3.9-2.1-6.5-2l-54.2,0C134.6,21.4,131.8,22,129.1,23.4L129.1,23.4z"/>
<path class="st1" d="M129.1,23.3l0.6,112.3l0.1,33.6c0,5.1,3.8,8.4,9.4,8.4l41.9,0c7.7,0,16.3-6,19.4-13.4c0.7-1.7,1.1-3.4,1.1-5
	l-0.7-129.5c-0.1-2.6-1.1-4.8-3-6.3c-1.6-1.4-3.9-2.1-6.5-2l-54.2,0C134.6,21.4,131.9,22,129.1,23.3z"/>
<linearGradient id="SVGID_2_" gradientUnits="userSpaceOnUse" x1="128.9381" y1="99.4652" x2="317.2902" y2="99.4652">
	<stop  offset="0" style="stop-color:#1C19A1"/>
	<stop  offset="0.999" style="stop-color:#0048E5"/>
</linearGradient>
<path class="st2" d="M248.5,23.4c-3.1,1.5-6,3.7-8.2,6.3L133.1,159.1c-5.7,6.8-5.5,14.7,0.4,17.4c1.4,0.7,3.1,1,4.9,1l41.8,0
	c5.6,0,12.1-3.3,16.3-8.4l27.8-33.5l93-112.2c-1.6-1.4-3.9-2.1-6.5-2l-54.2,0C254,21.4,251.2,22,248.5,23.4L248.5,23.4z"/>
<path class="st1" d="M248.5,23.3l0.6,112.3l0.1,33.6c0,5.1,3.8,8.4,9.4,8.4l41.9,0c7.7,0,16.3-6,19.4-13.4c0.7-1.7,1.1-3.4,1.1-5
	l-0.7-129.5c-0.1-2.6-1.1-4.8-3-6.3c-1.6-1.4-3.9-2.1-6.5-2l-54.2,0C254,21.4,251.2,22,248.5,23.3z"/>
<linearGradient id="SVGID_3_" gradientUnits="userSpaceOnUse" x1="110.6647" y1="76.7476" x2="196.3739" y2="21.0874">
	<stop  offset="1.030742e-03" style="stop-color:#1C3CA1"/>
	<stop  offset="1" style="stop-color:#1397E8"/>
</linearGradient>
<path class="st3" d="M129.6,105.9l68.3-82.4c-1.6-1.4-3.9-2.1-6.5-2l-54.2,0c-2.5,0-5.4,0.7-8.1,2L129.6,105.9z"/>
<linearGradient id="SVGID_4_" gradientUnits="userSpaceOnUse" x1="230.0474" y1="76.7476" x2="315.7565" y2="21.0874">
	<stop  offset="1.030742e-03" style="stop-color:#1C3CA1"/>
	<stop  offset="1" style="stop-color:#1397E8"/>
</linearGradient>
<path class="st4" d="M249,105.9l68.3-82.4c-1.6-1.4-3.9-2.1-6.5-2l-54.2,0c-2.5,0-5.4,0.7-8.1,2L249,105.9z"/>
</svg>
