<?xml version="1.0" encoding="utf-8"?>
<!-- Generator: Adobe Illustrator 24.0.3, SVG Export Plug-In . SVG Version: 6.00 Build 0)  -->
<svg version="1.1" id="Layer_1" xmlns="http://www.w3.org/2000/svg" xmlns:xlink="http://www.w3.org/1999/xlink" x="0px" y="0px"
	 viewBox="0 0 200 200" style="enable-background:new 0 0 200 200;" xml:space="preserve">
<style type="text/css">
	.st0{fill:url(#SVGID_1_);}
	.st1{fill:url(#SVGID_2_);}
	.st2{fill:#2693D7;}
	.st3{fill:url(#SVGID_3_);}
	.st4{fill:url(#SVGID_4_);}
	.st5{fill:url(#SVGID_5_);}
	.st6{fill:url(#SVGID_6_);}
	.st7{fill:url(#SVGID_7_);}
	.st8{fill:url(#SVGID_8_);}
</style>
<linearGradient id="SVGID_1_" gradientUnits="userSpaceOnUse" x1="16.3" y1="111" x2="185.2029" y2="111" gradientTransform="matrix(1 0 0 -1 0 202)">
	<stop  offset="0" style="stop-color:#1C19A1"/>
	<stop  offset="0.999" style="stop-color:#0048E5"/>
</linearGradient>
<path class="st0" d="M179.7,151H21.8c-3.1,0-5.5-2.5-5.5-5.5v-109c0-3.1,2.5-5.5,5.5-5.5h157.9c3.1,0,5.5,2.5,5.5,5.5v108.9
	C185.3,148.5,182.8,151,179.7,151z"/>
<linearGradient id="SVGID_2_" gradientUnits="userSpaceOnUse" x1="62.8" y1="37.5" x2="138.8" y2="37.5" gradientTransform="matrix(1 0 0 -1 0 202)">
	<stop  offset="0" style="stop-color:#1C19A1"/>
	<stop  offset="0.999" style="stop-color:#0048E5"/>
</linearGradient>
<rect x="62.8" y="161" class="st1" width="76" height="7"/>
<g>
	<g>
		<polygon class="st2" points="73.2,105.2 52.4,95.4 31.7,105.2 35.3,105.2 35.3,123.8 69.5,123.8 69.5,105.2 		"/>
	</g>
	
		<linearGradient id="SVGID_3_" gradientUnits="userSpaceOnUse" x1="52.4" y1="78.2" x2="52.4" y2="96.6412" gradientTransform="matrix(1 0 0 -1 0 202)">
		<stop  offset="0" style="stop-color:#1397E8"/>
		<stop  offset="0.999" style="stop-color:#1C3CA1"/>
	</linearGradient>
	<polygon class="st3" points="35.3,123.8 35.3,123.8 69.5,123.8 69.5,105.4 	"/>
</g>
<g>
	<g>
		<polygon class="st2" points="121.5,105.2 100.8,95.4 80,105.2 83.7,105.2 83.7,123.8 117.9,123.8 117.9,105.2 		"/>
	</g>
	
		<linearGradient id="SVGID_4_" gradientUnits="userSpaceOnUse" x1="100.8" y1="78.2" x2="100.8" y2="96.6412" gradientTransform="matrix(1 0 0 -1 0 202)">
		<stop  offset="0" style="stop-color:#1397E8"/>
		<stop  offset="0.999" style="stop-color:#1C3CA1"/>
	</linearGradient>
	<polygon class="st4" points="83.7,123.8 83.7,123.8 117.9,123.8 117.9,105.4 	"/>
</g>
<g>
	<g>
		<polygon class="st2" points="169.9,105.2 149.2,95.4 128.4,105.2 132.1,105.2 132.1,123.8 166.2,123.8 166.2,105.2 		"/>
	</g>
	
		<linearGradient id="SVGID_5_" gradientUnits="userSpaceOnUse" x1="149.15" y1="78.2" x2="149.15" y2="96.6412" gradientTransform="matrix(1 0 0 -1 0 202)">
		<stop  offset="0" style="stop-color:#1397E8"/>
		<stop  offset="0.999" style="stop-color:#1C3CA1"/>
	</linearGradient>
	<polygon class="st5" points="132.1,123.8 132.1,123.8 166.2,123.8 166.2,105.4 	"/>
</g>
<g>
	<g>
		<polygon class="st2" points="73.2,64.7 52.4,54.9 31.7,64.7 35.3,64.7 35.3,83.3 69.5,83.3 69.5,64.7 		"/>
	</g>
	
		<linearGradient id="SVGID_6_" gradientUnits="userSpaceOnUse" x1="52.4" y1="118.7" x2="52.4" y2="137.1412" gradientTransform="matrix(1 0 0 -1 0 202)">
		<stop  offset="0" style="stop-color:#1397E8"/>
		<stop  offset="0.999" style="stop-color:#1C3CA1"/>
	</linearGradient>
	<polygon class="st6" points="35.3,83.3 35.3,83.3 69.5,83.3 69.5,64.9 	"/>
</g>
<g>
	<g>
		<polygon class="st2" points="121.5,64.7 100.8,54.9 80,64.7 83.7,64.7 83.7,83.3 117.9,83.3 117.9,64.7 		"/>
	</g>
	
		<linearGradient id="SVGID_7_" gradientUnits="userSpaceOnUse" x1="100.8" y1="118.7" x2="100.8" y2="137.1412" gradientTransform="matrix(1 0 0 -1 0 202)">
		<stop  offset="0" style="stop-color:#1397E8"/>
		<stop  offset="0.999" style="stop-color:#1C3CA1"/>
	</linearGradient>
	<polygon class="st7" points="83.7,83.3 83.7,83.3 117.9,83.3 117.9,64.9 	"/>
</g>
<g>
	<g>
		<polygon class="st2" points="169.9,64.7 149.2,54.9 128.4,64.7 132.1,64.7 132.1,83.3 166.2,83.3 166.2,64.7 		"/>
	</g>
	
		<linearGradient id="SVGID_8_" gradientUnits="userSpaceOnUse" x1="149.15" y1="118.7" x2="149.15" y2="137.1412" gradientTransform="matrix(1 0 0 -1 0 202)">
		<stop  offset="0" style="stop-color:#1397E8"/>
		<stop  offset="0.999" style="stop-color:#1C3CA1"/>
	</linearGradient>
	<polygon class="st8" points="132.1,83.3 132.1,83.3 166.2,83.3 166.2,64.9 	"/>
</g>
</svg>
