<?xml version="1.0" encoding="utf-8"?>
<!-- Generator: Adobe Illustrator 24.0.3, SVG Export Plug-In . SVG Version: 6.00 Build 0)  -->
<svg version="1.1" id="Layer_1" xmlns="http://www.w3.org/2000/svg" xmlns:xlink="http://www.w3.org/1999/xlink" x="0px" y="0px"
	 viewBox="0 0 200 200" style="enable-background:new 0 0 200 200;" xml:space="preserve">
<style type="text/css">
	.st0{fill:url(#SVGID_1_);}
	.st1{fill:#1397E8;}
	.st2{fill:url(#SVGID_2_);}
</style>
<linearGradient id="SVGID_1_" gradientUnits="userSpaceOnUse" x1="8.9552" y1="100.0056" x2="133.3109" y2="100.0056">
	<stop  offset="0" style="stop-color:#1C19A1"/>
	<stop  offset="0.999" style="stop-color:#0048E5"/>
</linearGradient>
<path class="st0" d="M67.3,24.3c-2.4,1.5-4.3,3.7-5.4,6.3l-52,128.7c-2.8,6.8,0.5,14.6,7.3,17.3c1.6,0.7,3.4,1,5.1,1h39.9
	c5.4,0,10.4-3.3,12.4-8.3L88.2,136l45.2-111.7c-2.1-1.3-4.6-2.1-7-2H74.4C71.9,22.3,69.4,23,67.3,24.3L67.3,24.3z"/>
<path class="st1" d="M67.3,24.2l45.2,111.7l13.5,33.4c2.1,5.1,7,8.4,12.4,8.3h40c7.4,0,13.3-6,13.3-13.4c0-1.7-0.3-3.4-1-4.9
	l-52-128.7c-1.1-2.6-3-4.8-5.4-6.3c-2.1-1.3-4.6-2.1-7-2H74.4C71.9,22.3,69.4,22.9,67.3,24.2z"/>
<linearGradient id="SVGID_2_" gradientUnits="userSpaceOnUse" x1="67.3472" y1="64.1089" x2="133.3108" y2="64.1089">
	<stop  offset="1.030742e-03" style="stop-color:#1C3CA1"/>
	<stop  offset="1" style="stop-color:#1397E8"/>
</linearGradient>
<path class="st2" d="M100.3,105.9l33-81.5c-2.1-1.3-4.6-2.1-7-2H74.4c-2.5,0-4.9,0.7-7,2L100.3,105.9z"/>
</svg>
